<svg width="27" height="10" viewBox="0 0 27 10" fill="none" xmlns="http://www.w3.org/2000/svg">
<path d="M0.324 4.668C0.324 4.148 0.42 3.64 0.612 3.144C0.804 2.64 1.084 2.184 1.452 1.776C1.82 1.368 2.268 1.044 2.796 0.804C3.324 0.556 3.924 0.431999 4.596 0.431999C5.396 0.431999 6.088 0.604 6.672 0.948C7.264 1.292 7.704 1.74 7.992 2.292L6.48 3.348C6.352 3.044 6.18 2.808 5.964 2.64C5.756 2.472 5.524 2.356 5.268 2.292C5.02 2.22 4.78 2.184 4.548 2.184C4.172 2.184 3.844 2.26 3.564 2.412C3.284 2.556 3.052 2.752 2.868 3C2.684 3.248 2.548 3.524 2.46 3.828C2.372 4.132 2.328 4.436 2.328 4.74C2.328 5.076 2.38 5.4 2.484 5.712C2.588 6.024 2.736 6.3 2.928 6.54C3.128 6.78 3.368 6.972 3.648 7.116C3.928 7.252 4.236 7.32 4.572 7.32C4.812 7.32 5.056 7.28 5.304 7.2C5.552 7.12 5.78 6.996 5.988 6.828C6.204 6.652 6.368 6.424 6.48 6.144L8.088 7.092C7.92 7.508 7.644 7.864 7.26 8.16C6.876 8.456 6.44 8.684 5.952 8.844C5.472 8.996 4.996 9.072 4.524 9.072C3.908 9.072 3.34 8.948 2.82 8.7C2.308 8.444 1.864 8.108 1.488 7.692C1.12 7.268 0.832 6.796 0.624 6.276C0.424 5.748 0.324 5.212 0.324 4.668ZM15.7977 9V3.924L13.9617 7.62H12.8817L11.0457 3.924V9H9.07772V0.48H11.2137L13.4217 4.932L15.6417 0.48H17.7657V9H15.7977ZM21.5499 0.48H23.6739L26.6019 9H24.5859L23.9259 7.092H21.2739L20.6259 9H18.6099L21.5499 0.48ZM23.6019 5.736L22.6059 2.46L21.5859 5.736H23.6019Z" fill="#3561FF"/>
</svg>
