<svg width="1512" height="379" viewBox="0 0 1512 379" fill="none" xmlns="http://www.w3.org/2000/svg">
<path d="M-115 375.088C227.346 315.306 562.63 215.172 881.698 77.4226C936.256 53.8684 990.712 29.0914 1048.44 15.0066C1106.17 0.921839 1168.23 -1.91798 1224.13 18.2211C1252.09 28.2907 1278.14 44.0794 1298.96 65.2813C1319.77 86.4832 1335.23 113.179 1341.81 142.156C1348.39 171.133 1345.86 202.336 1333.37 229.298C1320.88 256.261 1298.26 278.658 1270.62 289.56C1247.98 298.487 1221.83 299.476 1199.47 289.886C1188.3 285.091 1178.19 277.726 1170.45 268.336C1162.72 258.947 1157.4 247.529 1155.52 235.51C1153.36 221.71 1155.77 207.361 1161.5 194.624C1167.23 181.887 1176.19 170.731 1186.82 161.672C1208.08 143.554 1235.33 134.027 1262.54 127.688C1313.62 115.785 1367.28 113.875 1418.62 124.628C1483.16 138.145 1542.48 171.285 1593.16 213.459C1640.95 253.221 1681.82 301.272 1713.4 354.819" stroke="#E5ECFF" stroke-width="7.55906" stroke-linecap="round" stroke-linejoin="round"/>
</svg>
