<svg width="1512" height="855" viewBox="0 0 1512 855" fill="none" xmlns="http://www.w3.org/2000/svg">
<path d="M-501.417 -443C-251.551 -201.459 -30.1683 69.5241 156.688 362.549C188.639 412.654 219.819 463.714 259.709 507.761C299.6 551.807 349.375 588.968 406.954 603.66C435.744 611.006 466.167 612.55 495.294 606.677C524.421 600.803 552.188 587.372 573.891 567.075C595.595 546.779 611.007 519.532 615.794 490.205C620.581 460.878 614.416 429.645 597.65 405.115C583.923 385.029 562.83 369.539 538.941 364.936C526.996 362.634 514.495 363.059 502.825 366.493C491.155 369.927 480.348 376.396 472.049 385.291C462.521 395.504 456.464 408.732 454.063 422.492C451.662 436.251 452.825 450.515 456.542 463.977C463.977 490.903 481.19 514.075 500.154 534.583C535.765 573.094 579.117 604.78 627.648 624.678C688.654 649.691 756.352 655.535 821.969 649.055C883.833 642.947 944.623 626.098 1000.81 599.487" stroke="#E5ECFF" stroke-width="7.55906" stroke-linecap="round" stroke-linejoin="round"/>
<path d="M-323.768 624.712C15.2913 548.465 -35.3097 766.574 276.732 613.575C330.089 587.413 455.5 431 813.5 466.5" stroke="#ED692E" stroke-width="7.55906" stroke-linecap="round" stroke-linejoin="round"/>
<path d="M520 431C822 271.5 836.032 515.927 1134.48 337.858C1185.51 307.409 1271.7 188.604 1663.95 126.734" stroke="#FEB45B" stroke-width="7.55906" stroke-linecap="round" stroke-linejoin="round"/>
</svg>
