<svg width="23" height="23" viewBox="0 0 23 23" fill="none" xmlns="http://www.w3.org/2000/svg">
<path d="M21.5 9.5459C22.3284 9.5459 23 10.2175 23 11.0459C23 11.8743 22.3284 12.5459 21.5 12.5459V11.0459V9.5459ZM0.439341 12.1066C-0.146446 11.5208 -0.146446 10.571 0.439341 9.98524L9.98528 0.439297C10.5711 -0.14649 11.5208 -0.14649 12.1066 0.439297C12.6924 1.02508 12.6924 1.97483 12.1066 2.56062L3.62132 11.0459L12.1066 19.5312C12.6924 20.117 12.6924 21.0667 12.1066 21.6525C11.5208 22.2383 10.5711 22.2383 9.98528 21.6525L0.439341 12.1066ZM21.5 11.0459V12.5459H1.5V11.0459V9.5459H21.5V11.0459Z" fill="#F9F9FE" fill-opacity="0.3"/>
</svg>
