<?xml version="1.0" encoding="utf-8"?>
<!-- Generator: Adobe Illustrator 25.1.0, SVG Export Plug-In . SVG Version: 6.00 Build 0)  -->
<svg version="1.1" id="Camada_1" xmlns="http://www.w3.org/2000/svg" xmlns:xlink="http://www.w3.org/1999/xlink" x="0px" y="0px"
	 viewBox="0 0 1000 369" style="enable-background:new 0 0 1000 369;" xml:space="preserve">
<style type="text/css">
	.st0{fill-rule:evenodd;clip-rule:evenodd;fill:#804C3D;}
	.st1{fill-rule:evenodd;clip-rule:evenodd;fill:#C9B32A;}
</style>
<g>
	<path class="st0" d="M73.33,195.47c0,0.43-0.03,1.15-0.09,2.11c-0.31,12.79-0.47,24.53-0.47,35.21v2.17
		c0,7.51,0.41,12.11,1.24,13.82c0.81,1.71,2.42,2.55,4.85,2.55c2.42,0,5.31-0.37,8.66-1.18c3.32-0.78,5.25-1.18,5.71-1.18
		c0.5,0,0.84,0.25,1.09,0.71c0.25,0.5,0.37,1.21,0.37,2.11c0,1.77-2.95,3.08-8.82,3.91c-3.63,0.53-6.71,1.03-9.19,1.46
		c-7.3,1.33-14.5,3.16-21.64,5.56c-1.52,0.53-2.42,0.81-2.64,0.81c-0.5-0.06-0.93-0.31-1.27-0.78c-0.37-0.47-0.56-0.96-0.56-1.49
		c0-0.06,0.87-0.93,2.64-2.55c1.77-1.65,2.86-4.38,3.26-8.2c0.43-4.13,0.84-14.97,1.18-32.57c0.37-17.58,0.56-37.7,0.56-60.31V144.8
		c0-5.99-0.47-9.69-1.4-11.09c-0.96-1.4-3.6-2.08-7.98-2.08c-0.12,0-0.46-0.03-1.06-0.09c-0.56-0.06-1.06-0.09-1.49-0.09h-2.26
		c-1.27,0-2.14-0.15-2.55-0.5c-0.43-0.34-0.65-0.93-0.65-1.77c0.06-0.96,0.31-1.68,0.71-2.11c0.43-0.4,1.15-0.65,2.11-0.71
		c0.12,0,0.59,0.03,1.46,0.09c5.15,0.19,10.62,0.28,16.46,0.28c11.15,0,22.76-0.09,34.81-0.28c12.02-0.19,18.51-0.28,19.41-0.28
		c5.65,0,9.66,0.19,12.05,0.59c2.39,0.4,3.6,1.03,3.6,1.86c0,0.62-0.78,2.61-2.33,6.06c-1.52,3.42-2.64,5.12-3.32,5.12
		c-0.15,0-0.68-0.31-1.49-0.9c-0.81-0.62-1.62-1.06-2.39-1.37c-1.52-0.56-3.76-0.93-6.65-1.15c-2.92-0.22-7.45-0.31-13.63-0.31H94.7
		c-5.34,0-9.38,0.06-12.11,0.19c-2.73,0.12-5.25,0.31-7.54,0.53c-0.59,7.54-1.03,14.91-1.31,22.08c-0.28,7.2-0.4,14.13-0.4,20.81
		v6.09c3.63-0.28,7.7-0.53,12.23-0.68c4.5-0.16,9.97-0.22,16.4-0.22h12.64c5.28,0,8.79,0.12,10.53,0.37
		c1.71,0.25,2.58,0.62,2.58,1.18c0,1.15-0.71,2.98-2.18,5.5c-1.46,2.51-2.79,3.76-4.01,3.76c-0.18,0-3.35-0.15-9.5-0.43
		c-6.15-0.31-12.23-0.47-18.23-0.47c-3.88,0-7.55,0.06-10.93,0.19C79.48,195.07,76.28,195.26,73.33,195.47L73.33,195.47z
		 M137.33,219.85c8.73-0.84,15.71-3.14,20.96-6.83c5.25-3.7,7.86-8.1,7.86-13.26c0-2.92-0.96-5.31-2.92-7.17
		c-1.93-1.89-4.44-2.83-7.54-2.83c-5.22,0-9.6,2.42-13.17,7.27c-3.57,4.85-5.37,10.93-5.37,18.2c0,0.71,0,1.49,0.03,2.27
		C137.21,218.27,137.27,219.07,137.33,219.85L137.33,219.85z M137.86,226.77c14.19-3.88,25.24-7.95,33.16-12.17
		c7.92-4.25,11.86-8.2,11.86-11.83c0-6.3-2.11-11.37-6.33-15.15c-4.19-3.79-9.78-5.68-16.77-5.68c-10.25,0-19.03,4.35-26.39,13.01
		c-7.33,8.66-10.99,19.22-10.99,31.67c0,11.8,3.23,20.93,9.69,27.33c6.46,6.4,15.68,9.6,27.7,9.6c6.24,0,10.84-0.37,13.76-1.15
		c2.89-0.74,5.59-2.61,8.07-5.59c4.01-4.72,7.24-9,9.69-12.82c2.45-3.82,3.7-6.37,3.7-7.64c0-0.65-0.22-1.24-0.68-1.74
		c-0.46-0.47-1.02-0.71-1.68-0.71c-0.81,0-1.86,0.93-3.2,2.83c-0.9,1.21-1.64,2.17-2.27,2.92c-3.51,4.04-7.17,6.93-10.96,8.63
		c-3.79,1.71-8.32,2.55-13.6,2.55c-7.2,0-12.92-2.02-17.11-6.09C141.34,240.66,138.79,234.66,137.86,226.77L137.86,226.77z
		 M219.19,199.79c4.19-5.47,8.6-9.81,13.23-13.04c4.66-3.2,8.57-4.81,11.8-4.81c0.41,0,0.68,0.15,0.78,0.47
		c0.09,0.28,0.12,0.93,0.12,1.89v10.47c0,2.73-1.46,4.13-4.38,4.19c-1.93,0.06-3.67,0.16-5.19,0.28c-6.24,0.56-10.43,1.8-12.58,3.79
		c-2.18,1.95-3.48,7.26-3.98,15.87c-0.37,7.08-0.68,15.16-0.96,24.19c-0.25,9.04-0.56,13.82-0.84,14.28
		c-0.31,0.56-2.36,1.83-6.15,3.88c-3.79,2.02-5.96,3.04-6.52,3.04c-0.34,0-0.56-0.09-0.62-0.28c-0.06-0.19-0.12-0.59-0.19-1.27
		c0-0.12,0.06-0.72,0.19-1.8c0.65-10.03,0.99-21.58,0.99-34.69v-9.47c0-9.1-0.37-14.78-1.15-17.08c-0.74-2.33-2.24-3.48-4.5-3.48
		c-1.86,0-3.94,0.47-6.18,1.43c-2.24,0.93-3.45,1.4-3.63,1.4c-0.5,0-0.9-0.28-1.24-0.81c-0.34-0.56-0.5-1.27-0.5-2.2
		c0-1.09,1.62-2.17,4.81-3.26c1.83-0.62,3.29-1.12,4.38-1.55c4.53-1.77,8.97-3.76,13.29-5.96c4.29-2.21,6.52-3.32,6.65-3.32
		c0.9,0,1.55,0.09,1.95,0.31c0.37,0.22,0.59,0.59,0.59,1.15c0,0-0.06,0.87-0.19,2.64c-0.12,1.77-0.19,3.48-0.19,5.19
		c0,2.23,0,3.97,0.03,5.18C219.07,197.62,219.13,198.74,219.19,199.79L219.19,199.79z M271.7,199.79c-0.06-1.06-0.12-2.17-0.15-3.39
		c-0.03-1.21-0.03-2.95-0.03-5.18c0-1.71,0.06-3.42,0.19-5.19c0.13-1.77,0.19-2.64,0.19-2.64c0-0.56-0.22-0.93-0.59-1.15
		c-0.4-0.22-1.06-0.31-1.95-0.31c-0.13,0-2.36,1.12-6.65,3.32c-4.32,2.2-8.76,4.19-13.29,5.96c-1.09,0.43-2.55,0.93-4.38,1.55
		c-3.2,1.09-4.81,2.17-4.81,3.26c0,0.93,0.15,1.65,0.5,2.2c0.34,0.53,0.75,0.81,1.24,0.81c0.19,0,1.4-0.47,3.63-1.4
		c2.23-0.96,4.31-1.43,6.18-1.43c2.27,0,3.76,1.15,4.5,3.48c0.78,2.3,1.15,7.98,1.15,17.08v9.47c0,13.1-0.34,24.66-0.99,34.69
		c-0.12,1.09-0.19,1.68-0.19,1.8c0.06,0.68,0.12,1.09,0.19,1.27c0.06,0.18,0.28,0.28,0.62,0.28c0.56,0,2.73-1.02,6.52-3.04
		c3.79-2.05,5.84-3.32,6.15-3.88c0.28-0.47,0.59-5.25,0.84-14.28c0.28-9.03,0.59-17.11,0.96-24.19c0.5-8.6,1.8-13.91,3.98-15.87
		c2.14-1.99,6.33-3.23,12.58-3.79c1.52-0.12,3.26-0.22,5.19-0.28c2.92-0.06,4.38-1.46,4.38-4.19v-10.47c0-0.96-0.03-1.61-0.12-1.89
		c-0.1-0.31-0.37-0.47-0.78-0.47c-3.23,0-7.14,1.61-11.8,4.81C280.3,189.98,275.89,194.32,271.7,199.79L271.7,199.79z M313.5,219.85
		c8.73-0.84,15.71-3.14,20.96-6.83c5.25-3.7,7.86-8.1,7.86-13.26c0-2.92-0.96-5.31-2.92-7.17c-1.93-1.89-4.44-2.83-7.54-2.83
		c-5.22,0-9.6,2.42-13.17,7.27c-3.57,4.85-5.37,10.93-5.37,18.2c0,0.71,0,1.49,0.03,2.27C313.37,218.27,313.44,219.07,313.5,219.85
		L313.5,219.85z M314.03,226.77c0.93,7.89,3.48,13.88,7.64,17.95c4.19,4.07,9.91,6.09,17.11,6.09c5.28,0,9.81-0.84,13.6-2.55
		c3.79-1.71,7.45-4.6,10.96-8.63c0.62-0.74,1.37-1.71,2.27-2.92c1.34-1.89,2.39-2.83,3.2-2.83c0.65,0,1.21,0.25,1.68,0.71
		c0.47,0.5,0.68,1.09,0.68,1.74c0,1.27-1.24,3.82-3.7,7.64c-2.45,3.82-5.68,8.1-9.69,12.82c-2.48,2.98-5.19,4.85-8.07,5.59
		c-2.92,0.78-7.51,1.15-13.76,1.15c-12.02,0-21.24-3.2-27.7-9.6c-6.46-6.4-9.69-15.53-9.69-27.33c0-12.45,3.67-23.01,10.99-31.67
		c7.36-8.66,16.15-13.01,26.39-13.01c6.99,0,12.58,1.89,16.77,5.68c4.22,3.79,6.33,8.85,6.33,15.15c0,3.63-3.94,7.58-11.86,11.83
		C339.27,218.83,328.22,222.89,314.03,226.77L314.03,226.77z M397.06,213.05c0-9.04,0.28-17.76,0.81-26.21
		c0.06-1.21,0.09-1.92,0.09-2.18c0-0.62-0.34-1.21-1.06-1.83c-0.68-0.59-1.34-0.9-1.96-0.9c-0.4,0-2.27,0.65-5.53,1.95
		c-3.26,1.31-6.4,2.45-9.35,3.42c-1.64,0.56-3.7,1.12-6.18,1.74c-3.54,0.9-5.31,1.8-5.37,2.73c0,1.02,0.22,1.83,0.62,2.45
		c0.43,0.59,0.99,0.9,1.64,0.9c0.31,0,0.99-0.19,2.05-0.56c1.06-0.34,1.93-0.53,2.58-0.53c2.55,0,4.32,0.87,5.28,2.58
		c0.96,1.74,1.46,6.02,1.46,12.89v44.87c0,4.41,0.13,7.17,0.37,8.26c0.25,1.09,0.59,1.64,1.09,1.64c0.06,0,1.3-0.4,3.73-1.24
		c2.42-0.81,4.72-1.58,6.89-2.3c0.96-0.37,1.65-0.81,2.05-1.34c0.4-0.5,0.59-1.18,0.59-2.05c0-0.06,0-0.22,0-0.43
		c0.12-1,0.18-1.9,0.18-2.73V213.05L397.06,213.05z M387.87,133.8c2.8,0,5.16,0.99,7.14,3.01c1.96,1.99,2.95,4.35,2.95,7.08
		c0,2.79-0.96,5.16-2.92,7.02c-1.92,1.89-4.35,2.83-7.17,2.83c-2.73,0-5.06-0.96-6.98-2.86c-1.9-1.93-2.86-4.25-2.86-6.99
		c0-2.8,0.96-5.15,2.86-7.14C382.81,134.8,385.14,133.8,387.87,133.8L387.87,133.8z M436.47,199.79c4.19-5.47,8.6-9.81,13.23-13.04
		c4.66-3.2,8.57-4.81,11.8-4.81c0.4,0,0.68,0.15,0.78,0.47c0.09,0.28,0.12,0.93,0.12,1.89v10.47c0,2.73-1.46,4.13-4.38,4.19
		c-1.93,0.06-3.67,0.16-5.19,0.28c-6.24,0.56-10.43,1.8-12.58,3.79c-2.17,1.95-3.48,7.26-3.98,15.87
		c-0.37,7.08-0.68,15.16-0.96,24.19c-0.25,9.04-0.56,13.82-0.84,14.28c-0.31,0.56-2.36,1.83-6.15,3.88
		c-3.79,2.02-5.96,3.04-6.52,3.04c-0.34,0-0.56-0.09-0.62-0.28c-0.06-0.19-0.12-0.59-0.19-1.27c0-0.12,0.06-0.72,0.19-1.8
		c0.65-10.03,0.99-21.58,0.99-34.69v-9.47c0-9.1-0.37-14.78-1.15-17.08c-0.75-2.33-2.23-3.48-4.5-3.48c-1.86,0-3.94,0.47-6.18,1.43
		c-2.23,0.93-3.45,1.4-3.63,1.4c-0.5,0-0.9-0.28-1.24-0.81c-0.34-0.56-0.5-1.27-0.5-2.2c0-1.09,1.61-2.17,4.81-3.26
		c1.83-0.62,3.29-1.12,4.38-1.55c4.53-1.77,8.98-3.76,13.29-5.96c4.29-2.21,6.52-3.32,6.65-3.32c0.9,0,1.55,0.09,1.96,0.31
		c0.37,0.22,0.59,0.59,0.59,1.15c0,0-0.06,0.87-0.19,2.64c-0.12,1.77-0.19,3.48-0.19,5.19c0,2.23,0,3.97,0.03,5.18
		C436.35,197.62,436.41,198.74,436.47,199.79L436.47,199.79z M514.35,219.88c-11.06,1.89-19.75,4.9-26.09,9.1
		c-6.33,4.19-9.5,8.91-9.5,14.19c0,3.04,1.03,5.47,3.1,7.33c2.05,1.83,4.75,2.77,8.08,2.77c7.23,0,13.14-2.7,17.7-8.14
		c4.59-5.43,6.89-12.67,6.89-21.71c0-0.34-0.03-0.93-0.09-1.68C514.38,221,514.35,220.38,514.35,219.88L514.35,219.88z
		 M512.61,247.27c-4.72,4.97-10.03,8.82-15.87,11.55c-5.84,2.73-11.65,4.1-17.42,4.1c-5.28,0-9.38-1.24-12.33-3.7
		c-2.95-2.45-4.41-5.87-4.41-10.21c0-8.01,4.5-15,13.54-20.99c9.04-5.96,21.74-10.28,38.04-12.95v-2.02c0-6.68-1.3-11.58-3.88-14.78
		c-2.58-3.2-6.49-4.78-11.77-4.78c-3.35,0-6.83,0.5-10.53,1.46c-3.66,0.96-5.68,1.46-6.02,1.46c-0.31,0-0.53-0.12-0.65-0.37
		c-0.13-0.25-0.19-0.59-0.19-1.09c0-4.78,1.8-8.17,5.43-10.09c3.6-1.96,9.97-2.92,19.07-2.92c8.41,0,14.32,1.89,17.7,5.68
		c3.35,3.79,5.03,10.9,5.03,21.33c0,3.23-0.13,7.45-0.41,12.7c-0.28,5.25-0.4,8.91-0.4,10.96c0,5.78,0.74,10.28,2.24,13.51
		c1.49,3.26,3.85,5.65,7.14,7.14c1.52,0.68,3.38,1.09,5.59,1.24c2.2,0.15,3.33,0.99,3.33,2.51c0,1.15-1.96,2.42-5.87,3.82
		c-3.91,1.4-7.67,2.08-11.24,2.08c-4.66,0-8.32-1.3-10.96-3.88C515.13,256.46,513.42,252.55,512.61,247.27L512.61,247.27z
		 M612.85,139.45c8.54-1.4,17.23-2.52,26.08-3.36c8.85-0.87,17.92-1.49,27.2-1.92c0.18,0,0.43,0,0.74,0
		c3.07-0.12,4.63-2.08,4.63-5.9c0-0.78-0.19-1.3-0.56-1.55c-0.34-0.25-1.09-0.37-2.17-0.37c-0.96,0-3.75,0.03-8.35,0.09
		c-22.89,0.31-45.37,0.47-67.51,0.47c-17.14,0-33.82-0.22-50.03-0.65c-2.48-0.03-3.94-0.06-4.35-0.06c-1.15,0-1.99,0.15-2.45,0.53
		c-0.5,0.37-0.75,1.12-0.75,2.27V132c0,0.59,0.06,2.05,0.19,4.35c0.12,2.33,0.19,4.31,0.19,6.02c0,0.84-0.03,1.68-0.1,2.45
		c-0.06,0.78-0.09,1.21-0.09,1.27c0,0.9,0.15,1.62,0.5,2.11c0.34,0.47,0.81,0.71,1.43,0.71c0.53,0,1.59-0.9,3.17-2.7
		c1.58-1.77,3.29-3.14,5.19-4.04c2.92-1.4,6.64-2.42,11.18-3.1c4.57-0.65,10.25-0.99,17.11-0.99c5.81,0,10.25,0.25,13.23,0.71
		c3.01,0.5,5,1.24,5.96,2.3c0.96,1.02,1.64,3.63,2.05,7.83c0.4,4.19,0.59,12.64,0.59,25.37v8.38c0,18.69-0.12,33.85-0.4,45.49
		c-0.28,11.64-0.71,19.84-1.34,24.56c-0.19,1.83-0.59,3.79-1.21,5.96c-0.65,2.14-0.96,3.38-0.96,3.66c0,0.68,0.19,1.18,0.56,1.46
		c0.34,0.31,0.96,0.46,1.8,0.46c0.19,0,0.9-0.31,2.11-0.9c5.68-2.8,11.8-5.03,18.29-6.74c2.7-0.71,5.71-1.3,9-1.74
		c3.14-0.47,4.72-1.71,4.72-3.73c0-0.96-0.06-1.52-0.18-1.71c-0.12-0.19-0.43-0.28-0.9-0.28c-0.68,0-1.92,0.16-3.79,0.47
		c-1.83,0.28-3.32,0.44-4.41,0.44c-3.29,0-5.47-0.9-6.55-2.67c-1.09-1.8-1.65-6.43-1.65-13.88c0-11.77,0.16-25.77,0.47-41.98
		C611.76,175.32,612.23,157.96,612.85,139.45L612.85,139.45z M675.02,191.03c8.26,0,15.03,3.54,20.34,10.59
		c5.31,7.08,7.95,16.15,7.95,27.26c0,7.51-2.02,13.57-6.05,18.17c-4.04,4.63-9.29,6.92-15.78,6.92c-7.76,0-14.32-3.42-19.69-10.25
		c-5.37-6.8-8.05-15.31-8.05-25.5c0-8.85,1.84-15.62,5.47-20.24C662.85,193.36,668.13,191.03,675.02,191.03L675.02,191.03z
		 M680.21,181.94c11.36,0,20.31,3.51,26.86,10.56c6.55,7.02,9.81,16.68,9.81,28.94c0,11.99-3.94,22.02-11.83,30.06
		c-7.89,8.04-17.7,12.05-29.47,12.05c-11.06,0-19.66-3.35-25.9-10.09c-6.21-6.74-9.32-16.05-9.32-27.95
		c0-13.1,3.66-23.63,11.02-31.61C658.72,185.91,668.31,181.94,680.21,181.94L680.21,181.94z M746.26,199.79
		c-0.06-1.06-0.12-2.17-0.15-3.39c-0.03-1.21-0.03-2.95-0.03-5.18c0-1.71,0.06-3.42,0.19-5.19c0.13-1.77,0.19-2.64,0.19-2.64
		c0-0.56-0.22-0.93-0.59-1.15c-0.4-0.22-1.06-0.31-1.96-0.31c-0.13,0-2.36,1.12-6.65,3.32c-4.32,2.2-8.76,4.19-13.29,5.96
		c-1.09,0.43-2.55,0.93-4.38,1.55c-3.2,1.09-4.82,2.17-4.82,3.26c0,0.93,0.16,1.65,0.5,2.2c0.34,0.53,0.75,0.81,1.24,0.81
		c0.18,0,1.4-0.47,3.63-1.4c2.24-0.96,4.32-1.43,6.18-1.43c2.27,0,3.76,1.15,4.5,3.48c0.78,2.3,1.15,7.98,1.15,17.08v9.47
		c0,13.1-0.34,24.66-0.99,34.69c-0.12,1.09-0.19,1.68-0.19,1.8c0.06,0.68,0.12,1.09,0.19,1.27c0.06,0.18,0.28,0.28,0.62,0.28
		c0.56,0,2.73-1.02,6.52-3.04c3.79-2.05,5.84-3.32,6.15-3.88c0.28-0.47,0.59-5.25,0.84-14.28c0.28-9.03,0.59-17.11,0.96-24.19
		c0.5-8.6,1.8-13.91,3.98-15.87c2.14-1.99,6.33-3.23,12.58-3.79c1.52-0.12,3.26-0.22,5.19-0.28c2.92-0.06,4.38-1.46,4.38-4.19
		v-10.47c0-0.96-0.03-1.61-0.12-1.89c-0.09-0.31-0.37-0.47-0.78-0.47c-3.23,0-7.14,1.61-11.8,4.81
		C754.86,189.98,750.45,194.32,746.26,199.79L746.26,199.79z M798.77,199.79c4.19-5.47,8.6-9.81,13.23-13.04
		c4.66-3.2,8.57-4.81,11.8-4.81c0.4,0,0.68,0.15,0.78,0.47c0.09,0.28,0.12,0.93,0.12,1.89v10.47c0,2.73-1.46,4.13-4.38,4.19
		c-1.93,0.06-3.67,0.16-5.19,0.28c-6.24,0.56-10.43,1.8-12.58,3.79c-2.17,1.95-3.48,7.26-3.98,15.87
		c-0.37,7.08-0.68,15.16-0.96,24.19c-0.25,9.04-0.56,13.82-0.84,14.28c-0.31,0.56-2.36,1.83-6.15,3.88
		c-3.79,2.02-5.96,3.04-6.52,3.04c-0.34,0-0.56-0.09-0.62-0.28c-0.06-0.19-0.12-0.59-0.19-1.27c0-0.12,0.06-0.72,0.19-1.8
		c0.65-10.03,0.99-21.58,0.99-34.69v-9.47c0-9.1-0.37-14.78-1.15-17.08c-0.75-2.33-2.24-3.48-4.5-3.48c-1.86,0-3.94,0.47-6.18,1.43
		c-2.23,0.93-3.45,1.4-3.63,1.4c-0.5,0-0.9-0.28-1.24-0.81c-0.34-0.56-0.5-1.27-0.5-2.2c0-1.09,1.62-2.17,4.82-3.26
		c1.83-0.62,3.29-1.12,4.38-1.55c4.53-1.77,8.98-3.76,13.29-5.96c4.29-2.21,6.52-3.32,6.65-3.32c0.9,0,1.55,0.09,1.96,0.31
		c0.37,0.22,0.59,0.59,0.59,1.15c0,0-0.06,0.87-0.19,2.64c-0.12,1.77-0.19,3.48-0.19,5.19c0,2.23,0,3.97,0.03,5.18
		C798.64,197.62,798.7,198.74,798.77,199.79L798.77,199.79z M840.56,219.85c8.73-0.84,15.71-3.14,20.96-6.83
		c5.25-3.7,7.86-8.1,7.86-13.26c0-2.92-0.96-5.31-2.92-7.17c-1.93-1.89-4.44-2.83-7.54-2.83c-5.22,0-9.6,2.42-13.17,7.27
		c-3.57,4.85-5.37,10.93-5.37,18.2c0,0.71,0,1.49,0.03,2.27C840.44,218.27,840.5,219.07,840.56,219.85L840.56,219.85z
		 M841.09,226.77c0.93,7.89,3.48,13.88,7.64,17.95c4.19,4.07,9.91,6.09,17.11,6.09c5.28,0,9.81-0.84,13.6-2.55
		c3.79-1.71,7.45-4.6,10.96-8.63c0.62-0.74,1.37-1.71,2.27-2.92c1.34-1.89,2.39-2.83,3.2-2.83c0.65,0,1.21,0.25,1.68,0.71
		c0.46,0.5,0.68,1.09,0.68,1.74c0,1.27-1.24,3.82-3.7,7.64c-2.45,3.82-5.68,8.1-9.69,12.82c-2.48,2.98-5.19,4.85-8.07,5.59
		c-2.92,0.78-7.51,1.15-13.76,1.15c-12.02,0-21.24-3.2-27.7-9.6c-6.46-6.4-9.69-15.53-9.69-27.33c0-12.45,3.67-23.01,10.99-31.67
		c7.36-8.66,16.15-13.01,26.4-13.01c6.99,0,12.58,1.89,16.77,5.68c4.22,3.79,6.33,8.85,6.33,15.15c0,3.63-3.94,7.58-11.86,11.83
		C866.34,218.83,855.28,222.89,841.09,226.77L841.09,226.77z M923.07,263.54c12.3,0,22.2-2.61,29.69-7.86
		c7.48-5.25,11.24-12.17,11.24-20.71c0-6.55-1.93-11.33-5.74-14.35c-3.82-2.98-11.21-4.91-22.17-5.78
		c-9.35-0.59-15.34-1.71-17.95-3.32c-2.61-1.59-3.91-4.22-3.91-7.86c0-3.76,1.46-6.77,4.38-9.04c2.89-2.27,6.77-3.41,11.64-3.41
		c5.68,0,11.49,1.21,17.36,3.63c1.64,0.65,2.7,0.99,3.2,0.99c0.78,0,1.61-1.06,2.45-3.14c0.84-2.08,1.27-4.01,1.27-5.78
		c0-1.09-1.96-2.17-5.87-3.23c-3.91-1.06-8.23-1.58-12.95-1.58c-9.22,0-16.8,2.76-22.76,8.29c-5.93,5.5-8.91,12.42-8.91,20.71
		c0,6.55,1.92,11.3,5.77,14.25c3.85,2.92,10.12,4.41,18.79,4.41h9.29c3.82,0,6.64,0.62,8.48,1.89c1.83,1.27,2.73,3.26,2.73,5.93
		c0,5.03-2.89,9.53-8.69,13.47c-5.78,3.95-12.73,5.9-20.87,5.9c-5.71,0-10-1.15-12.89-3.45c-2.89-2.33-4.32-5.78-4.32-10.4v-1.27
		c0-0.65-0.19-1.15-0.59-1.49c-0.4-0.34-1.06-0.53-1.96-0.59c-1.34,0-2.21,0.53-2.61,1.58c-0.41,1.05-0.59,3.79-0.59,8.17v2.64
		c0,3.38,0.15,5.5,0.5,6.36c0.34,0.84,0.96,1.46,1.86,1.8c2.02,0.81,5.28,1.52,9.84,2.21C913.32,263.2,918.07,263.54,923.07,263.54z
		"/>
	<path class="st1" d="M496.46,18.41c-43.89,35.96-99.1,49.22-164.64,41.81c106.93,37.65,217.32,40.62,331.89,1.74
		C591.8,66.88,536.54,51.76,496.46,18.41z"/>
	<rect x="36" y="97.54" class="st1" width="923.54" height="5.16"/>
	<rect x="36" y="346.43" class="st1" width="923.54" height="5.16"/>
	<polygon class="st0" points="654.86,179.16 647.56,175.69 677.8,147.18 704.91,174.3 696.92,176.03 677.8,154.48 	"/>
	<g>
		<path class="st1" d="M225.06,309.94c-1.02-2.21-2.15-4.94-3.37-8.18c-1.22-3.25-2.5-6.89-3.84-10.92
			c-0.69,1.9-1.95,4.55-3.81,7.94c-1.85,3.39-4.14,7.23-6.84,11.52c0.62,0.04,1.27,0.06,1.97,0.06c0.69,0,1.74,0,3.14,0
			c2.28,0,4.48-0.03,6.59-0.1C221.02,310.19,223.07,310.08,225.06,309.94L225.06,309.94z M226.35,313.01
			c-0.59,0-1.29,0.01-2.15,0.03c-0.85,0.02-1.43,0.03-1.74,0.03c-7.01,0-11.81,0.39-14.38,1.17c-2.56,0.79-4.64,2.27-6.26,4.44
			c-1.82,2.44-3.84,5.41-6.05,8.9c-2.2,3.48-3.57,5.22-4.12,5.22c-0.24,0-0.43-0.07-0.59-0.22c-0.15-0.13-0.23-0.34-0.23-0.6
			c0-0.25,1.3-2.44,3.91-6.61c2.61-4.16,5.04-8.18,7.31-12.05c4.39-7.58,7.7-13.69,9.94-18.32c2.24-4.63,3.36-7.7,3.36-9.24
			c0-0.19-0.03-0.42-0.09-0.68c-0.06-0.25-0.09-0.39-0.09-0.43c0-0.25,0.69-0.73,2.06-1.48c1.37-0.74,2.3-1.11,2.8-1.11
			c0.23,0,0.89,1.91,2.01,5.73c1.13,3.82,2.46,7.7,4.04,11.66c4.41,11.28,7.5,18.36,9.27,21.27c1.77,2.91,3.52,4.36,5.25,4.36
			c0.47,0,0.98-0.13,1.5-0.41c0.52-0.27,0.82-0.4,0.9-0.4c0.11,0,0.27,0.11,0.43,0.33c0.17,0.23,0.26,0.42,0.26,0.61
			c0,0.11-0.45,0.45-1.36,1.02c-0.9,0.55-1.75,1.12-2.56,1.68c-0.74,0.55-1.58,1.25-2.54,2.08s-1.56,1.24-1.82,1.24
			c-0.44,0-1.28-1.23-2.54-3.7C231.67,325.08,229.47,320.23,226.35,313.01L226.35,313.01z M264.76,309.73
			c-1.41-0.53-2.76-0.91-4.08-1.18c-1.31-0.28-2.57-0.41-3.76-0.41c-2.61,0-4.43,0.59-5.46,1.79c-1.04,1.2-1.55,3.31-1.55,6.34
			c0,3.15,0.71,5.58,2.14,7.29c1.43,1.72,3.45,2.58,6.06,2.58c1.45,0,2.74-0.27,3.88-0.8c1.15-0.52,1.87-1.2,2.17-2.02
			c0.14-0.44,0.26-1.6,0.35-3.46C264.59,317.98,264.68,314.61,264.76,309.73L264.76,309.73z M264.28,325.84
			c-0.34,0.28-0.79,0.68-1.36,1.2c-2.64,2.39-4.86,3.59-6.65,3.59c-3.56,0-6.2-0.89-7.9-2.69c-1.7-1.8-2.54-4.6-2.54-8.39
			c0-4.78,1.26-8.57,3.78-11.35c2.52-2.79,5.92-4.19,10.21-4.19c0.6,0,1.45,0.09,2.54,0.27c1.1,0.19,1.89,0.3,2.39,0.34
			c0-1.6,0.02-3.33,0.06-5.18c0-0.5,0-0.81,0-0.93c0-3.48-0.14-6.7-0.42-9.62c-0.04-0.4-0.06-0.65-0.06-0.73
			c0-0.46,0.48-0.77,1.44-0.92c0.27-0.04,0.48-0.08,0.67-0.12c1.1-0.23,2.3-0.57,3.61-1.03c1.29-0.46,2.04-0.69,2.22-0.69
			c0.23,0,0.41,0.08,0.58,0.24c0.15,0.16,0.24,0.36,0.24,0.58c0,0.26-0.41,0.61-1.23,1.04c-0.82,0.43-1.37,1.07-1.62,1.91
			c-0.33,1.12-0.58,4.36-0.76,9.74c-0.17,5.36-0.27,12.39-0.27,21.07v3.65c0,1.74,0.06,2.85,0.2,3.34c0.13,0.49,0.39,0.74,0.77,0.74
			c0.53,0,1.19-0.11,1.95-0.34c0.76-0.24,1.22-0.35,1.39-0.35c0.19,0,0.37,0.08,0.52,0.23c0.15,0.17,0.23,0.36,0.23,0.58
			c0,0.46-0.59,0.86-1.75,1.2c-0.68,0.21-1.23,0.38-1.67,0.54c-1.41,0.48-2.69,1.01-3.86,1.58c-1.17,0.57-1.76,0.85-1.79,0.85
			c-0.28,0-0.55-0.1-0.81-0.32c-0.26-0.21-0.39-0.42-0.39-0.65c0-0.08,0.02-0.24,0.06-0.45c0.19-0.95,0.3-1.89,0.3-2.84
			c0-0.04-0.01-0.14-0.03-0.31C264.29,326.89,264.28,326.36,264.28,325.84L264.28,325.84z M279.48,308.14
			c-1.01,0.38-1.8,0.66-2.38,0.84c-0.58,0.17-0.98,0.27-1.2,0.27c-0.12,0-0.22-0.09-0.3-0.27c-0.08-0.18-0.12-0.42-0.12-0.73
			c0-0.48,0.54-0.89,1.62-1.23c0.57-0.16,1.03-0.3,1.39-0.42c1.53-0.52,3.01-1.08,4.46-1.68c1.45-0.61,2.21-0.9,2.29-0.9
			c0.19,0,0.37,0.12,0.5,0.36c0.14,0.25,0.21,0.55,0.21,0.93c0,0.06-0.09,0.17-0.27,0.3c-0.73,0.5-1.09,1.28-1.09,2.35
			c0,1.73,0.61,4.46,1.82,8.2c1.21,3.75,2.81,7.45,4.78,11.09c2.76-4.49,4.99-8.52,6.69-12.07c1.69-3.54,2.55-5.87,2.55-6.97
			c0-0.52-0.19-0.89-0.55-1.1c-0.36-0.21-1.05-0.32-2.04-0.32c-0.23,0-0.48,0.02-0.8,0.06c-0.31,0.04-0.49,0.06-0.55,0.06
			c-0.12,0-0.21-0.07-0.27-0.22c-0.06-0.13-0.09-0.33-0.09-0.58c0-0.36,0.05-0.62,0.17-0.76c0.11-0.15,0.35-0.23,0.71-0.23h0.17h1
			c2,0,4.11-0.17,6.32-0.49c0.48-0.08,0.77-0.12,0.87-0.12c0.15,0,0.31,0.09,0.46,0.29c0.15,0.18,0.23,0.38,0.23,0.59
			c0,0.76-0.86,2.71-2.6,5.83c-1.74,3.13-4.74,8.12-8.99,14.99c-0.74,1.18-1.34,2.12-1.79,2.81c-0.45,0.69-0.72,1.07-0.8,1.13
			c-0.24,0.13-0.81,0.36-1.72,0.66c-0.92,0.3-1.47,0.45-1.66,0.45c-0.92,0-2.3-2.25-4.11-6.76
			C282.55,319.99,280.91,314.54,279.48,308.14L279.48,308.14z M320.21,307.03c-2.28,0-4.03,0.77-5.23,2.3
			c-1.2,1.54-1.81,3.77-1.81,6.7c0,3.37,0.88,6.18,2.66,8.44c1.78,2.26,3.94,3.39,6.51,3.39c2.15,0,3.88-0.76,5.22-2.29
			c1.34-1.52,2-3.53,2-6.02c0-3.67-0.87-6.68-2.63-9.02C325.19,308.2,322.95,307.03,320.21,307.03L320.21,307.03z M321.93,304.01
			c3.76,0,6.72,1.16,8.89,3.49c2.17,2.32,3.26,5.52,3.26,9.57c0,3.96-1.3,7.28-3.91,9.94c-2.61,2.66-5.86,3.99-9.76,3.99
			c-3.66,0-6.51-1.11-8.57-3.34c-2.06-2.23-3.09-5.31-3.09-9.24c0-4.33,1.21-7.82,3.65-10.45
			C314.81,305.33,317.99,304.01,321.93,304.01L321.93,304.01z M354.28,320.73v-0.15c0-0.82,0.3-2.19,0.89-4.11
			c0.58-1.91,0.88-3.45,0.88-4.61c0-1.72-0.55-3.11-1.64-4.14c-1.09-1.04-2.55-1.55-4.38-1.55c-1.8,0-3.37,0.71-4.69,2.12
			c-1.32,1.42-1.98,3.12-1.98,5.1c0,2.29,0.75,4.2,2.26,5.74c1.5,1.55,3.35,2.32,5.54,2.32c0.51,0,1.04-0.06,1.54-0.19
			C353.22,321.15,353.74,320.97,354.28,320.73L354.28,320.73z M354.53,322.45c-1.23,1.02-2.31,1.73-3.25,2.12
			c-0.95,0.39-1.97,0.59-3.1,0.59c-2.59,0-4.78-0.96-6.56-2.89c-1.79-1.93-2.68-4.35-2.68-7.23c0-3.32,1.09-5.98,3.28-7.99
			c2.19-2.02,5.06-3.03,8.62-3.03c1.48,0,2.87,0.19,4.17,0.59c1.3,0.39,2.51,1,3.66,1.81l7.03-0.18h0.48c0.5,0,0.83,0.09,0.96,0.27
			c0.14,0.19,0.22,0.61,0.22,1.26v0.33c0,0.7-0.08,1.12-0.26,1.26c-0.17,0.13-0.59,0.21-1.28,0.21l-5.54-0.06
			c0.08,0.36,0.13,0.74,0.17,1.13c0.04,0.39,0.06,0.82,0.06,1.28c0,1.12-0.27,2.46-0.79,4c-0.52,1.55-0.79,2.57-0.79,3.07
			c0,0.78,0.24,1.71,0.71,2.75c0.46,1.06,1.19,2.26,2.17,3.61c0.32,0.45,0.76,1.07,1.32,1.83c1.66,2.27,2.5,3.83,2.5,4.69
			c0,2.57-2.15,4.97-6.43,7.23c-4.28,2.25-9.24,3.38-14.85,3.38c-2.4,0-4.19-0.36-5.37-1.07c-1.17-0.71-1.76-1.78-1.76-3.19
			c0-1.66,0.69-3.11,2.06-4.35c1.39-1.24,2.63-1.86,3.74-1.86c0.2,0,0.33,0.03,0.4,0.09c0.07,0.06,0.11,0.17,0.11,0.36
			c0,0.12-0.22,0.67-0.64,1.63c-0.42,0.98-0.63,1.84-0.63,2.6c0,1.26,0.45,2.2,1.37,2.79c0.91,0.61,2.35,0.91,4.29,0.91
			c2.96,0,5.67-0.79,8.13-2.36c2.48-1.57,3.71-3.25,3.71-5.03c0-0.67-0.74-2.16-2.23-4.47
			C356.05,326.19,355.05,324.16,354.53,322.45L354.53,322.45z M386.87,316.58c-3.66,0.62-6.53,1.62-8.63,3.01
			c-2.09,1.38-3.14,2.94-3.14,4.68c0,1.01,0.34,1.81,1.03,2.42c0.68,0.61,1.57,0.91,2.67,0.91c2.39,0,4.35-0.89,5.86-2.69
			c1.52-1.8,2.28-4.18,2.28-7.17c0-0.12-0.01-0.31-0.03-0.55C386.87,316.95,386.87,316.75,386.87,316.58L386.87,316.58z
			 M386.29,325.63c-1.56,1.64-3.32,2.93-5.25,3.83c-1.94,0.9-3.86,1.36-5.77,1.36c-1.74,0-3.1-0.41-4.08-1.22
			c-0.98-0.81-1.46-1.94-1.46-3.39c0-2.65,1.5-4.96,4.49-6.93c2.99-1.98,7.18-3.41,12.58-4.29v-0.66c0-2.22-0.43-3.85-1.28-4.91
			c-0.85-1.06-2.15-1.58-3.89-1.58c-1.11,0-2.26,0.17-3.48,0.49c-1.21,0.33-1.88,0.49-1.99,0.49c-0.1,0-0.17-0.04-0.21-0.12
			c-0.04-0.08-0.06-0.19-0.06-0.36c0-1.59,0.6-2.71,1.8-3.36c1.19-0.65,3.3-0.96,6.31-0.96c2.79,0,4.75,0.63,5.86,1.88
			c1.11,1.25,1.66,3.62,1.66,7.07c0,1.07-0.04,2.47-0.13,4.2c-0.09,1.74-0.13,2.95-0.13,3.63c0,1.91,0.25,3.4,0.74,4.48
			c0.48,1.08,1.28,1.86,2.35,2.36c0.5,0.23,1.12,0.36,1.85,0.41c0.73,0.05,1.1,0.33,1.1,0.82c0,0.39-0.65,0.81-1.94,1.27
			c-1.3,0.46-2.54,0.69-3.72,0.69c-1.54,0-2.75-0.43-3.63-1.28C387.12,328.68,386.56,327.38,386.29,325.63L386.29,325.63z
			 M419.97,309.73c-1.41-0.53-2.76-0.91-4.08-1.18c-1.32-0.28-2.57-0.41-3.76-0.41c-2.61,0-4.43,0.59-5.46,1.79
			c-1.04,1.2-1.55,3.31-1.55,6.34c0,3.15,0.71,5.58,2.14,7.29c1.43,1.72,3.45,2.58,6.06,2.58c1.45,0,2.74-0.27,3.88-0.8
			c1.15-0.52,1.87-1.2,2.17-2.02c0.14-0.44,0.26-1.6,0.35-3.46C419.81,317.98,419.89,314.61,419.97,309.73L419.97,309.73z
			 M419.49,325.84c-0.34,0.28-0.79,0.68-1.36,1.2c-2.64,2.39-4.86,3.59-6.65,3.59c-3.56,0-6.2-0.89-7.9-2.69
			c-1.7-1.8-2.54-4.6-2.54-8.39c0-4.78,1.26-8.57,3.78-11.35c2.52-2.79,5.92-4.19,10.21-4.19c0.6,0,1.45,0.09,2.54,0.27
			c1.1,0.19,1.89,0.3,2.39,0.34c0-1.6,0.02-3.33,0.06-5.18c0-0.5,0-0.81,0-0.93c0-3.48-0.14-6.7-0.42-9.62
			c-0.04-0.4-0.06-0.65-0.06-0.73c0-0.46,0.48-0.77,1.44-0.92c0.27-0.04,0.48-0.08,0.67-0.12c1.1-0.23,2.3-0.57,3.61-1.03
			c1.3-0.46,2.04-0.69,2.22-0.69c0.23,0,0.41,0.08,0.58,0.24c0.15,0.16,0.24,0.36,0.24,0.58c0,0.26-0.41,0.61-1.23,1.04
			c-0.82,0.43-1.37,1.07-1.62,1.91c-0.33,1.12-0.58,4.36-0.76,9.74c-0.17,5.36-0.27,12.39-0.27,21.07v3.65
			c0,1.74,0.06,2.85,0.19,3.34c0.13,0.49,0.39,0.74,0.77,0.74c0.53,0,1.19-0.11,1.95-0.34c0.76-0.24,1.22-0.35,1.39-0.35
			c0.19,0,0.37,0.08,0.52,0.23c0.15,0.17,0.23,0.36,0.23,0.58c0,0.46-0.59,0.86-1.75,1.2c-0.68,0.21-1.23,0.38-1.67,0.54
			c-1.41,0.48-2.69,1.01-3.86,1.58c-1.17,0.57-1.76,0.85-1.79,0.85c-0.28,0-0.55-0.1-0.81-0.32c-0.26-0.21-0.39-0.42-0.39-0.65
			c0-0.08,0.02-0.24,0.06-0.45c0.19-0.95,0.3-1.89,0.3-2.84c0-0.04-0.01-0.14-0.03-0.31C419.5,326.89,419.49,326.36,419.49,325.84
			L419.49,325.84z M444.31,307.03c-2.28,0-4.03,0.77-5.23,2.3c-1.2,1.54-1.81,3.77-1.81,6.7c0,3.37,0.88,6.18,2.66,8.44
			c1.78,2.26,3.94,3.39,6.51,3.39c2.15,0,3.88-0.76,5.22-2.29c1.34-1.52,2-3.53,2-6.02c0-3.67-0.87-6.68-2.63-9.02
			C449.29,308.2,447.05,307.03,444.31,307.03L444.31,307.03z M446.03,304.01c3.76,0,6.72,1.16,8.88,3.49
			c2.17,2.32,3.26,5.52,3.26,9.57c0,3.96-1.3,7.28-3.91,9.94c-2.61,2.66-5.87,3.99-9.76,3.99c-3.66,0-6.51-1.11-8.57-3.34
			c-2.06-2.23-3.09-5.31-3.09-9.24c0-4.33,1.21-7.82,3.65-10.45C438.91,305.33,442.09,304.01,446.03,304.01L446.03,304.01z
			 M471.42,331.01c-1.64,0-3.23-0.11-4.72-0.33c-1.51-0.23-2.59-0.46-3.26-0.72c-0.3-0.12-0.5-0.32-0.62-0.61
			c-0.11-0.28-0.16-0.98-0.16-2.09v-0.87c0-1.44,0.06-2.33,0.2-2.68c0.13-0.35,0.42-0.52,0.86-0.52c0.31,0.02,0.52,0.08,0.66,0.19
			c0.13,0.11,0.19,0.28,0.19,0.49v0.42c0,1.52,0.47,2.66,1.43,3.42c0.96,0.76,2.37,1.14,4.26,1.14c2.69,0,4.99-0.65,6.9-1.95
			c1.92-1.3,2.88-2.78,2.88-4.45c0-0.88-0.3-1.53-0.91-1.95c-0.59-0.42-1.53-0.64-2.79-0.64h-3.07c-2.87,0-4.95-0.48-6.23-1.46
			c-1.27-0.98-1.91-2.55-1.91-4.71c0-2.75,0.99-5.04,2.95-6.87c1.97-1.83,4.48-2.74,7.53-2.74c1.56,0,2.99,0.17,4.28,0.53
			c1.29,0.36,1.94,0.72,1.94,1.08c0,0.58-0.14,1.22-0.42,1.92c-0.28,0.69-0.55,1.04-0.81,1.04c-0.17,0-0.51-0.11-1.05-0.33
			c-1.95-0.81-3.86-1.21-5.74-1.21c-1.6,0-2.89,0.38-3.85,1.13c-0.96,0.75-1.44,1.76-1.44,3c0,1.2,0.43,2.08,1.3,2.61
			c0.86,0.52,2.83,0.89,5.93,1.1c3.63,0.28,6.08,0.92,7.35,1.91c1.26,0.99,1.89,2.57,1.89,4.73c0,2.82-1.24,5.1-3.72,6.84
			C478.78,330.14,475.5,331.01,471.42,331.01L471.42,331.01z M535.31,309.94c-1.02-2.21-2.15-4.94-3.37-8.18
			c-1.22-3.25-2.5-6.89-3.84-10.92c-0.69,1.9-1.95,4.55-3.81,7.94c-1.85,3.39-4.14,7.23-6.84,11.52c0.62,0.04,1.27,0.06,1.97,0.06
			c0.69,0,1.74,0,3.14,0c2.28,0,4.48-0.03,6.59-0.1C531.27,310.19,533.33,310.08,535.31,309.94L535.31,309.94z M536.6,313.01
			c-0.59,0-1.29,0.01-2.15,0.03c-0.85,0.02-1.43,0.03-1.74,0.03c-7.01,0-11.81,0.39-14.38,1.17c-2.56,0.79-4.64,2.27-6.26,4.44
			c-1.82,2.44-3.84,5.41-6.05,8.9c-2.2,3.48-3.57,5.22-4.12,5.22c-0.24,0-0.43-0.07-0.59-0.22c-0.15-0.13-0.23-0.34-0.23-0.6
			c0-0.25,1.3-2.44,3.91-6.61c2.61-4.16,5.04-8.18,7.31-12.05c4.39-7.58,7.7-13.69,9.94-18.32c2.24-4.63,3.36-7.7,3.36-9.24
			c0-0.19-0.03-0.42-0.09-0.68c-0.06-0.25-0.09-0.39-0.09-0.43c0-0.25,0.69-0.73,2.06-1.48c1.37-0.74,2.3-1.11,2.81-1.11
			c0.23,0,0.89,1.91,2.01,5.73c1.13,3.82,2.47,7.7,4.04,11.66c4.41,11.28,7.5,18.36,9.27,21.27c1.77,2.91,3.52,4.36,5.25,4.36
			c0.47,0,0.98-0.13,1.5-0.41c0.52-0.27,0.82-0.4,0.9-0.4c0.11,0,0.27,0.11,0.43,0.33c0.17,0.23,0.26,0.42,0.26,0.61
			c0,0.11-0.45,0.45-1.36,1.02c-0.9,0.55-1.75,1.12-2.56,1.68c-0.74,0.55-1.58,1.25-2.54,2.08c-0.95,0.83-1.56,1.24-1.82,1.24
			c-0.44,0-1.28-1.23-2.54-3.7C541.93,325.08,539.73,320.23,536.6,313.01L536.6,313.01z M563.99,331.01c-1.64,0-3.23-0.11-4.72-0.33
			c-1.51-0.23-2.59-0.46-3.26-0.72c-0.3-0.12-0.5-0.32-0.62-0.61c-0.11-0.28-0.16-0.98-0.16-2.09v-0.87c0-1.44,0.06-2.33,0.19-2.68
			c0.13-0.35,0.42-0.52,0.86-0.52c0.31,0.02,0.52,0.08,0.66,0.19c0.13,0.11,0.19,0.28,0.19,0.49v0.42c0,1.52,0.47,2.66,1.43,3.42
			c0.96,0.76,2.37,1.14,4.26,1.14c2.69,0,4.99-0.65,6.9-1.95c1.92-1.3,2.88-2.78,2.88-4.45c0-0.88-0.3-1.53-0.91-1.95
			c-0.59-0.42-1.53-0.64-2.79-0.64h-3.07c-2.87,0-4.95-0.48-6.23-1.46c-1.27-0.98-1.91-2.55-1.91-4.71c0-2.75,0.99-5.04,2.95-6.87
			c1.97-1.83,4.48-2.74,7.53-2.74c1.56,0,2.99,0.17,4.28,0.53c1.29,0.36,1.94,0.72,1.94,1.08c0,0.58-0.15,1.22-0.42,1.92
			c-0.28,0.69-0.55,1.04-0.81,1.04c-0.17,0-0.51-0.11-1.05-0.33c-1.95-0.81-3.86-1.21-5.74-1.21c-1.6,0-2.89,0.38-3.85,1.13
			c-0.96,0.75-1.44,1.76-1.44,3c0,1.2,0.43,2.08,1.3,2.61c0.86,0.52,2.83,0.89,5.93,1.1c3.63,0.28,6.08,0.92,7.35,1.91
			c1.26,0.99,1.89,2.57,1.89,4.73c0,2.82-1.24,5.1-3.72,6.84C571.34,330.14,568.07,331.01,563.99,331.01L563.99,331.01z
			 M591.11,331.01c-1.64,0-3.23-0.11-4.72-0.33c-1.51-0.23-2.59-0.46-3.26-0.72c-0.3-0.12-0.5-0.32-0.62-0.61
			c-0.11-0.28-0.16-0.98-0.16-2.09v-0.87c0-1.44,0.06-2.33,0.19-2.68c0.13-0.35,0.42-0.52,0.86-0.52c0.31,0.02,0.52,0.08,0.66,0.19
			c0.13,0.11,0.19,0.28,0.19,0.49v0.42c0,1.52,0.47,2.66,1.43,3.42c0.96,0.76,2.37,1.14,4.26,1.14c2.69,0,4.99-0.65,6.9-1.95
			c1.92-1.3,2.88-2.78,2.88-4.45c0-0.88-0.3-1.53-0.91-1.95c-0.6-0.42-1.53-0.64-2.79-0.64h-3.07c-2.87,0-4.95-0.48-6.23-1.46
			c-1.27-0.98-1.91-2.55-1.91-4.71c0-2.75,0.99-5.04,2.95-6.87c1.97-1.83,4.48-2.74,7.53-2.74c1.56,0,2.99,0.17,4.28,0.53
			c1.29,0.36,1.94,0.72,1.94,1.08c0,0.58-0.15,1.22-0.42,1.92c-0.28,0.69-0.55,1.04-0.81,1.04c-0.17,0-0.51-0.11-1.05-0.33
			c-1.95-0.81-3.86-1.21-5.74-1.21c-1.6,0-2.89,0.38-3.85,1.13c-0.96,0.75-1.44,1.76-1.44,3c0,1.2,0.43,2.08,1.3,2.61
			c0.86,0.52,2.83,0.89,5.93,1.1c3.63,0.28,6.08,0.92,7.35,1.91c1.26,0.99,1.89,2.57,1.89,4.73c0,2.82-1.24,5.1-3.72,6.84
			C598.46,330.14,595.18,331.01,591.11,331.01L591.11,331.01z M620.93,307.03c-2.28,0-4.03,0.77-5.23,2.3
			c-1.2,1.54-1.81,3.77-1.81,6.7c0,3.37,0.88,6.18,2.66,8.44c1.78,2.26,3.94,3.39,6.51,3.39c2.15,0,3.88-0.76,5.22-2.29
			c1.34-1.52,2-3.53,2-6.02c0-3.67-0.87-6.68-2.63-9.02C625.91,308.2,623.67,307.03,620.93,307.03L620.93,307.03z M622.65,304.01
			c3.76,0,6.72,1.16,8.88,3.49c2.17,2.32,3.26,5.52,3.26,9.57c0,3.96-1.3,7.28-3.91,9.94c-2.61,2.66-5.86,3.99-9.76,3.99
			c-3.66,0-6.51-1.11-8.57-3.34c-2.06-2.23-3.09-5.31-3.09-9.24c0-4.33,1.21-7.82,3.65-10.45
			C615.53,305.33,618.72,304.01,622.65,304.01L622.65,304.01z M651.29,330.82c-4.04,0-7.07-1-9.09-2.98
			c-2.02-1.99-3.04-4.96-3.04-8.92c0-4.32,1.22-7.89,3.68-10.69c2.44-2.81,5.56-4.22,9.32-4.22c1.75,0,3.53,0.29,5.35,0.87
			c1.82,0.59,2.72,1.07,2.72,1.45c0,0.42-0.27,1.28-0.81,2.58c-0.55,1.3-0.9,1.94-1.09,1.94c-0.13,0-0.58-0.21-1.32-0.61
			c-2.91-1.61-5.44-2.41-7.61-2.41c-2.01,0-3.56,0.67-4.65,2c-1.1,1.33-1.64,3.23-1.64,5.71c0,3.29,0.82,5.92,2.47,7.89
			c1.64,1.96,3.88,2.95,6.71,2.95c1.55,0,2.89-0.21,4.01-0.65c1.12-0.43,2.1-1.1,2.95-2c0.4-0.4,0.79-0.94,1.16-1.62
			c0.37-0.69,0.71-1.03,1.01-1.03c0.25,0,0.45,0.07,0.62,0.23c0.17,0.15,0.26,0.34,0.26,0.55c0,0.31-0.33,1.02-1,2.15
			c-0.66,1.12-1.48,2.33-2.47,3.62c-0.99,1.26-1.99,2.12-3.02,2.55C654.75,330.6,653.25,330.82,651.29,330.82L651.29,330.82z
			 M674.65,314.31v13.6c0,0.28-0.02,0.58-0.06,0.91c0,0.08,0,0.12,0,0.14c0,0.29-0.06,0.51-0.2,0.68c-0.13,0.17-0.35,0.32-0.68,0.44
			c-0.72,0.24-1.48,0.49-2.28,0.76c-0.8,0.28-1.21,0.41-1.23,0.41c-0.16,0-0.28-0.19-0.36-0.55c-0.08-0.36-0.13-1.27-0.13-2.73
			v-14.83c0-2.27-0.16-3.69-0.48-4.26c-0.32-0.56-0.89-0.85-1.74-0.85c-0.22,0-0.5,0.06-0.85,0.17c-0.35,0.12-0.57,0.19-0.68,0.19
			c-0.21,0-0.4-0.1-0.54-0.3c-0.13-0.21-0.21-0.47-0.21-0.82c0.02-0.3,0.61-0.61,1.78-0.91c0.82-0.19,1.5-0.39,2.04-0.58
			c0.98-0.32,2.01-0.7,3.09-1.13c1.08-0.43,1.69-0.65,1.83-0.65c0.21,0,0.42,0.1,0.65,0.3c0.24,0.21,0.35,0.4,0.35,0.61
			c0,0.08-0.01,0.32-0.03,0.72C674.74,308.43,674.65,311.32,674.65,314.31L674.65,314.31z M671.62,288.11c0.92,0,1.7,0.33,2.36,1
			c0.65,0.66,0.98,1.44,0.98,2.34c0,0.92-0.32,1.7-0.96,2.32c-0.64,0.63-1.44,0.93-2.37,0.93c-0.9,0-1.68-0.32-2.31-0.94
			c-0.63-0.64-0.95-1.41-0.95-2.31c0-0.91,0.32-1.7,0.95-2.36C669.94,288.44,670.71,288.11,671.62,288.11z"/>
		<path class="st1" d="M699.41,316.58c-3.66,0.62-6.53,1.62-8.63,3.01c-2.09,1.38-3.14,2.94-3.14,4.68c0,1.01,0.34,1.81,1.03,2.42
			c0.68,0.61,1.57,0.91,2.67,0.91c2.39,0,4.35-0.89,5.86-2.69c1.52-1.8,2.28-4.18,2.28-7.17c0-0.12-0.01-0.31-0.03-0.55
			C699.42,316.95,699.41,316.75,699.41,316.58L699.41,316.58z M698.84,325.63c-1.56,1.64-3.32,2.93-5.25,3.83
			c-1.94,0.9-3.86,1.36-5.77,1.36c-1.74,0-3.1-0.41-4.08-1.22c-0.98-0.81-1.46-1.94-1.46-3.39c0-2.65,1.5-4.96,4.49-6.93
			c2.99-1.98,7.18-3.41,12.58-4.29v-0.66c0-2.22-0.43-3.85-1.28-4.91c-0.85-1.06-2.15-1.58-3.89-1.58c-1.11,0-2.26,0.17-3.48,0.49
			c-1.21,0.33-1.88,0.49-1.99,0.49c-0.1,0-0.17-0.04-0.21-0.12c-0.04-0.08-0.06-0.19-0.06-0.36c0-1.59,0.6-2.71,1.8-3.36
			c1.19-0.65,3.3-0.96,6.31-0.96c2.79,0,4.75,0.63,5.86,1.88c1.11,1.25,1.66,3.62,1.66,7.07c0,1.07-0.04,2.47-0.13,4.2
			c-0.09,1.74-0.13,2.95-0.13,3.63c0,1.91,0.25,3.4,0.74,4.48c0.48,1.08,1.28,1.86,2.35,2.36c0.5,0.23,1.12,0.36,1.85,0.41
			c0.73,0.05,1.1,0.33,1.1,0.82c0,0.39-0.65,0.81-1.94,1.27c-1.3,0.46-2.54,0.69-3.72,0.69c-1.54,0-2.75-0.43-3.63-1.28
			C699.67,328.68,699.1,327.38,698.84,325.63L698.84,325.63z M732.52,309.73c-1.41-0.53-2.76-0.91-4.08-1.18
			c-1.32-0.28-2.57-0.41-3.76-0.41c-2.61,0-4.43,0.59-5.46,1.79c-1.04,1.2-1.55,3.31-1.55,6.34c0,3.15,0.71,5.58,2.14,7.29
			c1.43,1.72,3.45,2.58,6.06,2.58c1.45,0,2.74-0.27,3.88-0.8c1.15-0.52,1.87-1.2,2.17-2.02c0.14-0.44,0.26-1.6,0.35-3.46
			C732.35,317.98,732.43,314.61,732.52,309.73L732.52,309.73z M732.03,325.84c-0.34,0.28-0.79,0.68-1.36,1.2
			c-2.64,2.39-4.86,3.59-6.65,3.59c-3.56,0-6.2-0.89-7.9-2.69c-1.7-1.8-2.54-4.6-2.54-8.39c0-4.78,1.26-8.57,3.78-11.35
			c2.52-2.79,5.92-4.19,10.21-4.19c0.6,0,1.45,0.09,2.54,0.27c1.1,0.19,1.89,0.3,2.39,0.34c0-1.6,0.02-3.33,0.06-5.18
			c0-0.5,0-0.81,0-0.93c0-3.48-0.15-6.7-0.42-9.62c-0.04-0.4-0.06-0.65-0.06-0.73c0-0.46,0.48-0.77,1.44-0.92
			c0.27-0.04,0.48-0.08,0.67-0.12c1.1-0.23,2.3-0.57,3.61-1.03c1.3-0.46,2.04-0.69,2.22-0.69c0.23,0,0.41,0.08,0.58,0.24
			c0.15,0.16,0.24,0.36,0.24,0.58c0,0.26-0.41,0.61-1.23,1.04c-0.82,0.43-1.37,1.07-1.62,1.91c-0.33,1.12-0.58,4.36-0.76,9.74
			c-0.17,5.36-0.27,12.39-0.27,21.07v3.65c0,1.74,0.06,2.85,0.19,3.34c0.13,0.49,0.39,0.74,0.77,0.74c0.53,0,1.19-0.11,1.95-0.34
			c0.76-0.24,1.22-0.35,1.39-0.35c0.19,0,0.37,0.08,0.52,0.23c0.15,0.17,0.23,0.36,0.23,0.58c0,0.46-0.59,0.86-1.75,1.2
			c-0.68,0.21-1.23,0.38-1.67,0.54c-1.41,0.48-2.69,1.01-3.86,1.58c-1.17,0.57-1.76,0.85-1.79,0.85c-0.28,0-0.55-0.1-0.81-0.32
			c-0.26-0.21-0.39-0.42-0.39-0.65c0-0.08,0.02-0.24,0.06-0.45c0.19-0.95,0.3-1.89,0.3-2.84c0-0.04-0.01-0.14-0.03-0.31
			C732.04,326.89,732.03,326.36,732.03,325.84L732.03,325.84z M756.86,307.03c-2.28,0-4.03,0.77-5.23,2.3
			c-1.2,1.54-1.81,3.77-1.81,6.7c0,3.37,0.88,6.18,2.66,8.44c1.78,2.26,3.94,3.39,6.51,3.39c2.15,0,3.88-0.76,5.22-2.29
			c1.34-1.52,2-3.53,2-6.02c0-3.67-0.87-6.68-2.63-9.02C761.83,308.2,759.59,307.03,756.86,307.03L756.86,307.03z M758.58,304.01
			c3.76,0,6.72,1.16,8.88,3.49c2.17,2.32,3.26,5.52,3.26,9.57c0,3.96-1.3,7.28-3.91,9.94c-2.61,2.66-5.87,3.99-9.76,3.99
			c-3.66,0-6.51-1.11-8.57-3.34c-2.06-2.23-3.09-5.31-3.09-9.24c0-4.33,1.21-7.82,3.65-10.45
			C751.46,305.33,754.64,304.01,758.58,304.01L758.58,304.01z M783.97,331.01c-1.64,0-3.23-0.11-4.72-0.33
			c-1.51-0.23-2.59-0.46-3.26-0.72c-0.3-0.12-0.5-0.32-0.62-0.61c-0.11-0.28-0.16-0.98-0.16-2.09v-0.87c0-1.44,0.06-2.33,0.19-2.68
			c0.13-0.35,0.42-0.52,0.86-0.52c0.31,0.02,0.52,0.08,0.66,0.19c0.13,0.11,0.19,0.28,0.19,0.49v0.42c0,1.52,0.47,2.66,1.43,3.42
			c0.96,0.76,2.37,1.14,4.26,1.14c2.69,0,4.99-0.65,6.9-1.95c1.92-1.3,2.88-2.78,2.88-4.45c0-0.88-0.3-1.53-0.91-1.95
			c-0.59-0.42-1.53-0.64-2.79-0.64h-3.07c-2.87,0-4.95-0.48-6.23-1.46c-1.27-0.98-1.91-2.55-1.91-4.71c0-2.75,0.99-5.04,2.95-6.87
			c1.97-1.83,4.48-2.74,7.53-2.74c1.56,0,2.99,0.17,4.28,0.53c1.29,0.36,1.94,0.72,1.94,1.08c0,0.58-0.15,1.22-0.42,1.92
			c-0.28,0.69-0.55,1.04-0.81,1.04c-0.17,0-0.51-0.11-1.05-0.33c-1.95-0.81-3.86-1.21-5.74-1.21c-1.6,0-2.89,0.38-3.85,1.13
			c-0.96,0.75-1.44,1.76-1.44,3c0,1.2,0.43,2.08,1.3,2.61c0.86,0.52,2.83,0.89,5.93,1.1c3.63,0.28,6.08,0.92,7.35,1.91
			c1.26,0.99,1.89,2.57,1.89,4.73c0,2.82-1.24,5.1-3.72,6.84C791.32,330.14,788.05,331.01,783.97,331.01z"/>
	</g>
</g>
</svg>
