<?xml version="1.0" encoding="UTF-8"?>
<svg xmlns="http://www.w3.org/2000/svg" width="61" height="38" viewBox="0 0 61 38" fill="none">
  <path d="M6.62349 31.7405H1.68056C1.66175 32.2298 1.83685 32.7068 2.16778 33.0676C2.46977 33.353 2.87271 33.5068 3.288 33.4951C3.6418 33.5084 3.99027 33.4059 4.28048 33.203C4.54185 33.0116 4.72211 32.7293 4.78574 32.4116H6.59975C6.51435 32.8739 6.31797 33.3085 6.02752 33.678C5.72828 34.0569 5.34183 34.3577 4.90114 34.5548C4.38024 34.7801 3.81609 34.8875 3.2489 34.8696C2.68171 34.8517 2.12545 34.7089 1.61978 34.4513C1.11345 34.1764 0.698615 33.7593 0.42643 33.2514C0.145938 32.6779 0.00012207 32.0479 0.00012207 31.4094C0.00012207 30.7709 0.145938 30.1409 0.42643 29.5673C0.696321 29.0578 1.11174 28.6401 1.61978 28.3675C2.16016 28.0844 2.76309 27.942 3.373 27.9533C3.98119 27.9395 4.58275 28.0821 5.12005 28.3675C5.6057 28.6304 6.00683 29.0257 6.27684 29.5075C6.55434 30.0126 6.69495 30.5814 6.68475 31.1576C6.6819 31.3534 6.6614 31.5484 6.62349 31.7405ZM4.52313 29.7307C4.20892 29.4454 3.79679 29.2923 3.37253 29.3032C2.94259 29.2914 2.52437 29.4444 2.2034 29.7307C2.03688 29.8943 1.90486 30.0896 1.81513 30.305C1.72541 30.5205 1.67981 30.7518 1.68104 30.9852H4.95764C4.98523 30.7568 4.96044 30.5252 4.88516 30.3078C4.80987 30.0905 4.68606 29.8931 4.52313 29.7307Z" fill="#00B5FF"></path>
  <path d="M11.8219 28.3547C12.2184 28.6159 12.5228 28.995 12.6923 29.4386V25.773H14.3971V34.7857H12.6923V33.373C12.5219 33.8177 12.2178 34.1986 11.8219 34.4632C11.3897 34.7441 10.8821 34.8864 10.3669 34.8712C9.82685 34.8789 9.29542 34.7354 8.83259 34.457C8.36779 34.1698 7.99731 33.7527 7.76697 33.2571C7.51402 32.675 7.38348 32.047 7.38348 31.4122C7.38348 30.7775 7.51402 30.1495 7.76697 29.5673C7.99731 29.0718 8.36779 28.6547 8.83259 28.3675C9.29542 28.0891 9.82685 27.9456 10.3669 27.9533C10.8812 27.9379 11.3882 28.0777 11.8219 28.3547ZM9.61185 29.9744C9.26971 30.3723 9.09507 30.8873 9.12463 31.4113C9.09428 31.9335 9.26912 32.4469 9.61185 32.842C9.95796 33.1761 10.4208 33.3619 10.9019 33.3597C11.3829 33.3575 11.844 33.1674 12.1871 32.8301C12.514 32.4272 12.6924 31.924 12.6924 31.4051C12.6924 30.8862 12.514 30.3831 12.1871 29.9801C12.0224 29.8062 11.8228 29.6691 11.6015 29.5777C11.3801 29.4864 11.1419 29.4428 10.9025 29.45C10.6625 29.4401 10.4231 29.4817 10.2006 29.5722C9.97798 29.6627 9.7774 29.7998 9.61232 29.9744H9.61185Z" fill="#00B5FF"></path>
  <path d="M22.2857 28.0383V34.7833H20.569V33.4191C20.4004 33.8621 20.09 34.2368 19.6862 34.485C19.2596 34.7455 18.7675 34.8786 18.2678 34.8688C17.9207 34.8842 17.5744 34.8237 17.253 34.6915C16.9317 34.5592 16.643 34.3584 16.4073 34.1031C15.9137 33.5018 15.6659 32.736 15.7135 31.9594V28.0378H17.4178V31.7642C17.3894 32.2182 17.5378 32.6655 17.8319 33.0125C17.976 33.1623 18.1506 33.2795 18.3438 33.3562C18.5371 33.4329 18.7445 33.4673 18.9521 33.4571C19.1714 33.4674 19.3904 33.4303 19.5941 33.3483C19.7978 33.2664 19.9815 33.1415 20.1326 32.9821C20.4474 32.6002 20.6042 32.1123 20.5709 31.6184V28.0378L22.2857 28.0383Z" fill="#00B5FF"></path>
  <path d="M28.8997 28.6591C29.488 29.1439 29.8762 29.8294 29.9895 30.5834H28.1755C28.1166 30.2503 27.9394 29.9496 27.6764 29.7369C27.3935 29.5224 27.0449 29.4126 26.6901 29.4263C26.4748 29.422 26.2611 29.465 26.0641 29.5523C25.8672 29.6397 25.6919 29.7692 25.5504 29.9317C25.2529 30.3678 25.0937 30.8835 25.0937 31.4115C25.0937 31.9395 25.2529 32.4553 25.5504 32.8914C25.6919 33.0539 25.8672 33.1834 26.0641 33.2707C26.2611 33.3581 26.4748 33.4011 26.6901 33.3968C27.0449 33.4105 27.3935 33.3007 27.6764 33.0862C27.9395 32.8735 28.1167 32.5728 28.1755 32.2397H29.9895C29.8762 32.9937 29.488 33.6791 28.8997 34.1639C28.2809 34.6478 27.5112 34.898 26.7262 34.8702C26.1156 34.8815 25.5122 34.7368 24.973 34.4499C24.4667 34.1749 24.0519 33.7579 23.7796 33.25C23.4993 32.6764 23.3536 32.0464 23.3536 31.408C23.3536 30.7695 23.4993 30.1395 23.7796 29.5659C24.0496 29.0564 24.465 28.6387 24.973 28.3661C25.5134 28.083 26.1163 27.9405 26.7262 27.9519C27.5113 27.9244 28.281 28.1749 28.8997 28.6591Z" fill="#00B5FF"></path>
  <path d="M35.093 28.3547C35.4909 28.6127 35.7942 28.9932 35.9572 29.4386V28.0383H37.662V34.7833H35.9572V33.3707C35.7933 33.8172 35.4903 34.1994 35.093 34.4608C34.6582 34.7411 34.1488 34.8833 33.6318 34.8688C33.0917 34.8765 32.5603 34.7331 32.0975 34.4546C31.6328 34.1674 31.2625 33.7503 31.0323 33.2548C30.7792 32.6727 30.6486 32.0447 30.6486 31.4099C30.6486 30.7751 30.7792 30.1471 31.0323 29.565C31.2625 29.0695 31.6328 28.6524 32.0975 28.3651C32.5603 28.0867 33.0917 27.9432 33.6318 27.9509C34.1482 27.9368 34.657 28.0774 35.093 28.3547ZM32.8767 29.9744C32.5347 30.3723 32.3603 30.8874 32.39 31.4113C32.3595 31.9335 32.5341 32.4469 32.8767 32.842C33.2229 33.1761 33.6857 33.3619 34.1668 33.3597C34.6478 33.3575 35.1089 33.1675 35.452 32.8301C35.7789 32.4272 35.9573 31.924 35.9573 31.4051C35.9573 30.8862 35.7789 30.3831 35.452 29.9801C35.2876 29.8065 35.0884 29.6695 34.8675 29.5782C34.6465 29.4868 34.4088 29.4432 34.1698 29.45C33.9294 29.4398 33.6896 29.4813 33.4666 29.5718C33.2436 29.6622 33.0426 29.7995 32.8772 29.9744H32.8767Z" fill="#00B5FF"></path>
  <path d="M44.2755 28.6591C44.8639 29.1439 45.2521 29.8294 45.3653 30.5834H43.5513C43.4923 30.2502 43.3149 29.9496 43.0518 29.7369C42.7689 29.5223 42.4203 29.4125 42.0655 29.4263C41.8501 29.422 41.6364 29.465 41.4395 29.5523C41.2426 29.6397 41.0672 29.7692 40.9258 29.9317C40.6282 30.3678 40.4691 30.8835 40.4691 31.4115C40.4691 31.9395 40.6282 32.4553 40.9258 32.8914C41.0672 33.0539 41.2426 33.1834 41.4395 33.2707C41.6364 33.3581 41.8501 33.4011 42.0655 33.3968C42.4203 33.4106 42.7689 33.3008 43.0518 33.0862C43.315 32.8736 43.4924 32.5729 43.5513 32.2397H45.3653C45.2521 32.9937 44.8639 33.6791 44.2755 34.1639C43.6567 34.6478 42.887 34.8979 42.102 34.8703C41.4914 34.8815 40.888 34.7368 40.3488 34.4499C39.8425 34.1749 39.4277 33.7579 39.1555 33.25C38.8751 32.6764 38.7294 32.0464 38.7294 31.408C38.7294 30.7695 38.8751 30.1395 39.1555 29.5659C39.4254 29.0564 39.8408 28.6387 40.3488 28.3661C40.8892 28.083 41.4921 27.9405 42.102 27.9519C42.8872 27.9245 43.6568 28.1749 44.2755 28.6591ZM43.4236 35.712C43.5669 35.8328 43.682 35.9836 43.7608 36.1537C43.8396 36.3238 43.8801 36.5092 43.8795 36.6966C43.8789 36.8841 43.8372 37.0692 43.7574 37.2388C43.6776 37.4085 43.5615 37.5585 43.4174 37.6785C43.0788 37.9025 42.6788 38.0154 42.273 38.0014H40.7021V37.0757H42.0902C42.5042 37.0757 42.7111 36.9295 42.7108 36.6373C42.7121 36.5797 42.6988 36.5228 42.6722 36.4717C42.6457 36.4207 42.6067 36.3771 42.5589 36.3451C42.4174 36.2617 42.2539 36.2234 42.0902 36.2354H41.2867V34.7007H42.3214V35.4193C42.7111 35.3918 43.0989 35.4948 43.4236 35.712Z" fill="#00B5FF"></path>
  <path d="M50.4697 28.3547C50.8677 28.6127 51.171 28.9931 51.334 29.4386V28.0383H53.0388V34.7833H51.334V33.3707C51.1701 33.8173 50.8671 34.1994 50.4697 34.4608C50.035 34.7411 49.5256 34.8833 49.0086 34.8688C48.4685 34.8765 47.9371 34.7331 47.4742 34.4546C47.0096 34.1673 46.6391 33.7502 46.4086 33.2548C46.1557 32.6726 46.0251 32.0446 46.0251 31.4099C46.0251 30.7751 46.1557 30.1471 46.4086 29.565C46.6391 29.0696 47.0096 28.6525 47.4742 28.3651C47.9371 28.0867 48.4685 27.9432 49.0086 27.9509C49.5249 27.9369 50.0338 28.0775 50.4697 28.3547ZM49.2275 25.8457C49.3864 25.9179 49.541 25.9993 49.6905 26.0894C49.8058 26.1622 49.9259 26.2273 50.0499 26.2841C50.144 26.325 50.2456 26.3457 50.3482 26.3449C50.415 26.3473 50.4815 26.3356 50.5435 26.3104C50.6054 26.2853 50.6614 26.2474 50.7076 26.1991C50.8107 26.0792 50.8726 25.9293 50.8843 25.7716H51.7732C51.7328 26.2142 51.5563 26.6333 51.268 26.9715C51.1412 27.1021 50.9885 27.2048 50.8197 27.2729C50.6509 27.341 50.4698 27.3731 50.2879 27.3671C50.1316 27.3699 49.9763 27.341 49.8315 27.2821C49.6668 27.2099 49.5062 27.1285 49.3505 27.0384C49.2045 26.9574 49.0888 26.8964 49.0033 26.8556C48.914 26.8144 48.8167 26.7936 48.7184 26.7948C48.4183 26.7948 48.2397 26.9856 48.1827 27.3671H47.3061C47.4768 26.2955 47.9675 25.7597 48.7782 25.7597C48.9323 25.7572 49.0852 25.7864 49.2275 25.8457ZM48.2535 29.9744C47.9112 30.3722 47.7366 30.8873 47.7663 31.4113C47.7357 31.9337 47.9105 32.4473 48.2535 32.8425C48.5996 33.1767 49.0625 33.3626 49.5435 33.3603C50.0246 33.3581 50.4858 33.168 50.8287 32.8306C51.1556 32.4277 51.334 31.9245 51.334 31.4056C51.334 30.8867 51.1556 30.3835 50.8287 29.9806C50.6644 29.807 50.4652 29.67 50.2442 29.5786C50.0233 29.4873 49.7856 29.4436 49.5466 29.4505C49.3061 29.44 49.0662 29.4814 48.8431 29.5718C48.62 29.6622 48.4189 29.7995 48.2535 29.9744Z" fill="#00B5FF"></path>
  <path d="M59.3137 28.367C59.8327 28.6391 60.2616 29.0559 60.5484 29.5669C60.8444 30.1358 60.9989 30.7676 60.9989 31.4089C60.9989 32.0502 60.8444 32.6821 60.5484 33.251C60.2593 33.7602 59.831 34.1764 59.3137 34.4508C58.7641 34.7271 58.1574 34.871 57.5423 34.871C56.9271 34.871 56.3204 34.7271 55.7707 34.4508C55.2535 34.1764 54.8252 33.7602 54.5361 33.251C54.2401 32.6821 54.0855 32.0502 54.0855 31.4089C54.0855 30.7676 54.2401 30.1358 54.5361 29.5669C54.823 29.0559 55.2518 28.6391 55.7707 28.367C56.3216 28.0946 56.9278 27.9529 57.5423 27.9529C58.1567 27.9529 58.7629 28.0946 59.3137 28.367ZM56.3249 29.9445C56.0011 30.3651 55.8255 30.8811 55.8255 31.412C55.8255 31.9429 56.0011 32.4589 56.3249 32.8795C56.4846 33.0397 56.6744 33.1667 56.8832 33.2534C57.0921 33.3401 57.3161 33.3848 57.5423 33.3848C57.7684 33.3848 57.9923 33.3401 58.2012 33.2534C58.4101 33.1667 58.5998 33.0397 58.7596 32.8795C59.0834 32.4589 59.259 31.9429 59.259 31.412C59.259 30.8811 59.0834 30.3651 58.7596 29.9445C58.5998 29.7843 58.4101 29.6573 58.2012 29.5706C57.9923 29.4839 57.7684 29.4393 57.5423 29.4393C57.3161 29.4393 57.0921 29.4839 56.8832 29.5706C56.6744 29.6573 56.4846 29.7843 56.3249 29.9445Z" fill="#00B5FF"></path>
  <path d="M18.6852 0.000499725H37.8515V4.3192H30.529V22.7616H26.0092V4.3192H18.6852V0.000499725Z" fill="#0032BE"></path>
  <path d="M0 22.7615V3.79382C0 1.40077 1.40039 0 3.79279 0H16.4244V4.3187H5.36795C5.25436 4.30894 5.14001 4.32413 5.03291 4.36321C4.92581 4.4023 4.82854 4.46433 4.74793 4.54496C4.66731 4.6256 4.6053 4.72289 4.56623 4.83002C4.52715 4.93715 4.51196 5.05153 4.52172 5.16515V9.0174H13.7105V13.2193H4.52172V22.7615H0Z" fill="#0032BE"></path>
  <path d="M40.7957 2.66383C40.5864 2.53547 40.4136 2.35558 40.2937 2.14136C40.1739 1.92713 40.1109 1.68573 40.1109 1.44023V6.51038C40.1109 6.7564 40.1738 6.99834 40.2937 7.21317C40.4135 7.42801 40.5863 7.6086 40.7957 7.73778L46.2828 11.1231C46.3269 11.1503 46.3633 11.1883 46.3885 11.2335C46.4138 11.2788 46.427 11.3297 46.427 11.3815C46.427 11.4333 46.4138 11.4842 46.3885 11.5295C46.3633 11.5747 46.3269 11.6127 46.2828 11.6399L40.7957 15.0243C40.5863 15.1535 40.4135 15.3342 40.2936 15.5491C40.1737 15.764 40.1109 16.0061 40.1109 16.2522V21.3218C40.1109 21.0763 40.1739 20.8349 40.2937 20.6207C40.4136 20.4065 40.5864 20.2266 40.7957 20.0982L48.6562 15.249C49.3161 14.8419 49.8608 14.2728 50.2387 13.5957C50.6165 12.9186 50.8149 12.156 50.8149 11.3805C50.8149 10.6051 50.6165 9.84254 50.2387 9.16543C49.8608 8.48832 49.3161 7.91918 48.6562 7.51215L40.7957 2.66383Z" fill="#00B5FF"></path>
  <path d="M48.9516 0.000499863H41.5512C41.238 0.000362926 40.9334 0.102486 40.6836 0.291348C40.4338 0.48021 40.2524 0.745485 40.1671 1.04686C40.0817 1.34824 40.0971 1.66925 40.2108 1.9611C40.3245 2.25295 40.5304 2.49969 40.7971 2.66383L43.4806 4.3192H48.9516C53.1523 4.3192 56.4199 7.03335 56.4199 11.381C56.4199 15.7287 53.1528 18.4429 48.9516 18.4429H43.4806L40.7971 20.0987C40.5303 20.2627 40.3243 20.5094 40.2105 20.8013C40.0967 21.0931 40.0813 21.4142 40.1666 21.7156C40.252 22.017 40.4334 22.2823 40.6834 22.4711C40.9333 22.6599 41.238 22.7619 41.5512 22.7616H48.9516C55.7199 22.7616 60.9995 18.4428 60.9995 11.381C60.9995 4.3192 55.7199 0.000499863 48.9516 0.000499863Z" fill="#0032BE"></path>
</svg>
